<svg xmlns="http://www.w3.org/2000/svg" width="71" height="69" viewBox="0 0 71 69" fill="none" class="w-12 h-11 lg:w-16 lg:h-16" data-v-5eecd5e3=""><ellipse cx="35.7276" cy="34.5" rx="34.8343" ry="34.1167" fill="#FFF0F0"></ellipse><g clip-path="url(#clip0_4159_3691)"><path d="M35.7276 52.6708C45.9732 52.6708 54.2807 44.5345 54.2807 34.5C54.2807 24.4655 45.9732 16.3292 35.7276 16.3292C25.4821 16.3292 17.1746 24.4655 17.1746 34.5C17.1746 35.3436 17.2334 36.1711 17.3461 36.9823L16.5493 37.2743C15.8999 37.5014 15.3343 37.8989 14.8973 38.4019C14.6524 37.1364 14.5242 35.8304 14.5242 34.5C14.5242 23.0297 24.016 13.7333 35.7276 13.7333C47.4393 13.7333 56.9311 23.0297 56.9311 34.5C56.9311 45.9703 47.4393 55.2667 35.7276 55.2667C34.3693 55.2667 33.0358 55.145 31.7437 54.9016C32.2572 54.4717 32.5885 53.9201 32.895 53.2873L33.1932 52.5005C34.0214 52.6141 34.8663 52.6708 35.7276 52.6708ZM36.059 44.8752C41.7657 44.7049 46.3294 40.1216 46.3294 34.5C46.3294 28.7648 41.5834 24.1167 35.7276 24.1167C29.9878 24.1167 25.3081 28.5864 25.1342 34.1025L22.4904 35.1246C22.4804 34.9218 22.4009 34.7109 22.4009 34.427C22.4009 27.329 28.4058 21.4478 35.6531 21.4478C43.0495 21.4478 48.9798 27.329 48.9798 34.427C48.9798 41.671 43.0495 47.4792 35.6531 47.4792C35.5123 47.4792 35.297 47.4711 35.0899 47.4629L36.059 44.8752ZM30.4102 52.3869C30.2197 52.8899 29.7393 53.2225 29.1927 53.1657C28.646 53.2468 28.1491 52.9223 27.942 52.4356L25.4158 46.4327L16.7861 54.8854C16.2693 55.3965 15.4303 55.3965 14.9123 54.8854C14.3948 54.3825 14.3948 53.555 14.9123 53.0521L23.5439 44.5994L17.4189 42.0523C16.9137 41.9225 16.5882 41.4357 16.5981 40.9004C16.6089 40.365 16.9526 39.8945 17.4653 39.7079L35.2721 33.2102C35.7525 33.1047 36.2991 33.2264 36.6636 33.5833C37.028 33.9403 37.1523 34.4757 36.97 34.9462L30.4102 52.3869ZM27.1137 43.6422L29.027 48.3634L33.4913 36.6172L21.5702 40.9896L26.3931 42.9365C26.7162 43.0663 26.9812 43.3258 27.1137 43.6422Z" fill="#DE465B"></path></g><defs><clipPath id="clip0_4159_3691"><rect width="42.407" height="41.5333" fill="white" transform="translate(14.5242 13.7333)"></rect></clipPath></defs></svg>