<svg xmlns="http://www.w3.org/2000/svg" width="70" height="68" viewBox="0 0 70 68" fill="none" class="w-12 h-11 lg:w-16 lg:h-16" data-v-5eecd5e3=""><ellipse cx="35.0394" cy="33.5574" rx="34.2632" ry="33.5574" fill="#EFFFF0"></ellipse><g clip-path="url(#clip0_4159_3693)"><path d="M42.8015 23.7622C43.5184 23.7622 44.105 24.4085 44.105 25.0388C44.105 25.8128 43.5184 26.3155 42.8015 26.3155H27.1596C26.4394 26.3155 25.8561 25.8128 25.8561 25.0388C25.8561 24.4085 26.4394 23.7622 27.1596 23.7622H42.8015ZM25.8561 40.4303C25.8561 39.7282 26.4394 39.1537 27.1596 39.1537H42.8015C43.5184 39.1537 44.105 39.7282 44.105 40.4303C44.105 41.1325 43.5184 41.7069 42.8015 41.7069H27.1596C26.4394 41.7069 25.8561 41.1325 25.8561 40.4303ZM42.8015 31.422C43.5184 31.422 44.105 32.0683 44.105 32.6987C44.105 33.4726 43.5184 33.9753 42.8015 33.9753H27.1596C26.4394 33.9753 25.8561 33.4726 25.8561 32.6987C25.8561 32.0683 26.4394 31.422 27.1596 31.422H42.8015ZM25.7966 16.3417L29.4977 12.7182C30.0028 12.2196 30.8338 12.2196 31.3389 12.7182L34.9805 16.2835L38.6222 12.7182C39.1273 12.2196 39.9582 12.2196 40.4633 12.7182L44.162 16.3417L48.4635 12.6601C48.8464 12.3303 49.3923 12.2514 49.8566 12.4583C50.321 12.6653 50.6224 13.12 50.6224 13.6209V51.9201C50.6224 52.4227 50.321 52.8057 49.8566 53.085C49.3923 53.2924 48.8464 53.2127 48.4635 52.8775L44.162 49.1992L40.4633 52.8217C39.9582 53.3244 39.1273 53.3244 38.6222 52.8217L34.9805 49.2551L31.3389 52.8217C30.8338 53.3244 30.0028 53.3244 29.4977 52.8217L25.7966 49.1992L21.5008 52.8775C21.1154 53.2127 20.5696 53.2924 20.1034 53.085C19.6377 52.8057 19.3386 52.4227 19.3386 51.9201V13.6209C19.3386 13.12 19.6378 12.6653 20.1034 12.4583C20.5696 12.2514 21.1154 12.3303 21.5008 12.6601L25.7966 16.3417ZM24.9974 46.4225C25.5139 46.0475 26.2928 46.0715 26.7775 46.5502L30.4183 50.1168L34.0599 46.5502C34.565 46.0475 35.396 46.0475 35.9011 46.5502L39.5428 50.1168L43.1844 46.5502C43.6651 46.0715 44.4471 46.0475 44.9604 46.4225L48.0155 49.1035V16.4343L44.9604 19.0498C44.4471 19.4926 43.6651 19.4671 43.1844 18.9915L39.5428 15.4265L35.9011 18.9915C35.396 19.4902 34.565 19.4902 34.0599 18.9915L30.4183 15.4265L26.7775 18.9915C26.2928 19.4671 25.5139 19.4926 24.9974 19.0498L21.9456 16.4343V49.1035L24.9974 46.4225Z" fill="#3ABF46"></path></g><defs><clipPath id="clip0_4159_3693"><rect width="31.2838" height="40.8525" fill="white" transform="translate(19.3386 12.3442)"></rect></clipPath></defs></svg>