<svg xmlns="http://www.w3.org/2000/svg" width="71" height="69" viewBox="0 0 71 69" fill="none" class="w-12 h-11 lg:w-16 lg:h-16" data-v-5eecd5e3=""><ellipse cx="35.4805" cy="34.5" rx="34.8343" ry="34.1167" fill="#F2F8FF"></ellipse><g clip-path="url(#clip0_4159_3692)"><path d="M28.9705 21.3042C29.3846 18.4496 31.8777 16.3292 34.8263 16.3292C38.4292 16.3292 41.121 19.4523 40.6821 22.9404L39.3403 32.1232C38.9262 34.9786 36.4331 37.0958 33.4845 37.0958C29.8815 37.0958 27.1234 33.9727 27.6287 30.4846L28.9705 21.3042ZM34.8263 18.925C33.2029 18.925 31.8197 20.0956 31.5878 21.6717L30.2543 30.7766C29.9727 32.7721 31.4967 34.5 33.4845 34.5C35.1079 34.5 36.4911 33.3319 36.6484 31.75L38.0565 22.5754C38.3381 20.6496 36.8141 18.925 34.8263 18.925ZM25.0279 16.5896C25.4089 16.8727 25.5994 17.3391 25.5249 17.8064L22.2127 38.5722C22.0992 39.2131 21.4217 39.7809 20.6986 39.6754C19.9747 39.5781 19.4802 38.921 19.5937 38.2153L22.5365 19.7695L18.7746 21.4073C18.1012 21.7001 17.3226 21.4073 17.0344 20.7534C16.7462 20.0988 17.0584 19.3314 17.731 19.0386L23.6944 16.4427C24.1417 16.2497 24.6469 16.3056 25.0279 16.5896ZM55.4168 22.8025L54.4975 30.6549C54.1496 33.5833 51.6151 35.7979 48.6002 35.7979C45.0553 35.7979 42.3055 32.7721 42.7113 29.3246L43.6307 21.4738C43.9785 18.5421 46.513 16.3292 49.5279 16.3292C53.0728 16.3292 55.8227 19.3557 55.4168 22.8025ZM45.3452 29.6166C45.1133 31.531 46.6373 33.2021 48.6002 33.2021C50.2733 33.2021 51.6731 31.9772 51.8636 30.3548L52.7167 22.5105C53.0149 20.5993 51.4909 18.925 49.5279 18.925C47.8631 18.925 46.455 20.1491 46.2645 21.7715L45.3452 29.6166ZM56.6758 40.8192C56.7669 41.525 56.2617 42.182 55.5328 42.2794L15.7779 47.4711C15.0521 47.5603 14.3856 47.0655 14.2889 46.3516C14.1921 45.6459 14.7018 44.9888 15.4276 44.8914L55.1849 39.6998C55.9055 39.5375 56.5764 40.1054 56.6758 40.8192ZM31.596 52.6627C30.9417 52.6789 30.2791 52.249 30.188 51.4621C30.0969 50.8213 30.6104 50.1723 31.3393 50.0831L52.5428 47.4873C53.2716 47.398 53.9342 47.901 54.0253 48.6148C54.0419 49.3287 53.6029 49.9776 52.7995 50.0669L31.596 52.6627Z" fill="#4486D4"></path></g><defs><clipPath id="clip0_4159_3692"><rect width="42.407" height="41.5333" fill="white" transform="translate(14.2771 13.7333)"></rect></clipPath></defs></svg>