<svg xmlns="http://www.w3.org/2000/svg" width="71" height="69" viewBox="0 0 71 69" fill="none" class="w-12 h-11 lg:w-16 lg:h-16" data-v-5eecd5e3=""><ellipse cx="35.1949" cy="34.1167" rx="34.8343" ry="34.1167" fill="#FFFBE5"></ellipse><g clip-path="url(#clip0_4159_3694)"><path d="M53.3776 13.7303C53.891 13.2234 54.7358 13.2234 55.2492 13.7302L60.5495 18.9214C60.798 19.1648 60.9388 19.4949 60.9388 19.8389C60.9388 20.1836 60.798 20.5138 60.5495 20.7571L55.2492 25.948C54.7358 26.459 53.891 26.459 53.3776 25.948C52.8558 25.4451 52.8558 24.6176 53.3776 24.1147L56.417 21.0646H21.1865C21.1865 25.4369 17.6254 28.8521 13.2361 28.8521V38.9921L10.5859 41.5879V23.6604C10.5859 20.8658 12.9587 18.4687 15.8862 18.4687H39.7127L39.7376 18.5409L56.417 18.4687L53.3776 15.5655C52.8558 15.0593 52.8558 14.2375 53.3776 13.7303ZM18.5364 21.0646H15.8862C14.4229 21.0646 13.2361 22.2976 13.2361 23.6604V26.2562C16.1637 26.2562 18.5364 24.0011 18.5364 21.0646ZM15.4978 52.6689C16.0154 53.1718 16.0154 53.9992 15.4978 54.5022C14.981 55.0132 14.1421 55.0132 13.6245 54.5022L8.32387 49.3105C8.07542 49.0671 7.93579 48.7345 7.93579 48.3208C7.93579 48.0531 8.07542 47.7205 8.32396 47.4772L13.6245 42.2855C14.1421 41.7745 14.981 41.7745 15.4978 42.2855C16.0154 42.7885 16.0154 43.6159 15.4978 44.1188L12.4601 47.0229H29.137H29.1701H47.688C47.688 42.7236 51.1746 39.2354 55.6385 39.2354V29.2415L58.2886 26.6456V44.4271C58.2886 47.3636 55.9118 49.6188 52.9883 49.6188H12.4601L15.4978 52.6689ZM50.3382 47.0229H52.9883C54.4542 47.0229 55.6385 45.9359 55.6385 44.4271V41.8312C52.715 41.8312 50.3382 44.2243 50.3382 47.0229ZM42.3877 34.0437C42.3877 38.4161 38.8266 41.8312 34.4373 41.8312C29.9734 41.8312 26.4868 38.4161 26.4868 34.0437C26.4868 29.7444 29.9734 26.2562 34.4373 26.2562C38.8266 26.2562 42.3877 29.7444 42.3877 34.0437ZM34.4373 28.8521C31.5138 28.8521 29.137 31.2451 29.137 34.0437C29.137 36.9803 31.5138 39.2354 34.4373 39.2354C37.3607 39.2354 39.7376 36.9803 39.7376 34.0437C39.7376 31.2451 37.3607 28.8521 34.4373 28.8521Z" fill="#C8B640"></path></g><defs><clipPath id="clip0_4159_3694"><rect width="53.0087" height="41.5333" fill="white" transform="translate(7.93335 13.3501)"></rect></clipPath></defs></svg>